<svg id="Layer_1" data-name="Layer 1" xmlns="http://www.w3.org/2000/svg" viewBox="0 0 102.29 116.13"><defs><style>.cls-1,.cls-3{fill:#fff;}.cls-1,.cls-2{stroke:red;stroke-miterlimit:10;}.cls-2{fill:none;}.cls-4{fill:red;}</style></defs><title>network</title><polygon class="cls-1" points="69.61 15.95 95.7 42.04 95.7 78.94 69.61 105.03 32.71 105.03 6.62 78.94 6.62 42.04 32.71 15.95 69.61 15.95"/><g id="Connections"><line class="cls-2" x1="32.71" y1="105.03" x2="32.71" y2="15.95"/><line class="cls-2" x1="32.71" y1="105.03" x2="6.62" y2="43.49"/><line class="cls-2" x1="32.71" y1="105.03" x2="95.7" y2="42.04"/><line class="cls-2" x1="32.71" y1="105.03" x2="69.61" y2="15.95"/><line class="cls-2" x1="6.6" y1="81.1" x2="32.71" y2="15.95"/><line class="cls-2" x1="6.6" y1="81.1" x2="69.61" y2="15.95"/><line class="cls-2" x1="6.6" y1="81.1" x2="95.7" y2="42.04"/><line class="cls-2" x1="6.6" y1="81.1" x2="95.34" y2="81.1"/><line class="cls-2" x1="6.6" y1="81.1" x2="69.61" y2="105.03"/><line class="cls-2" x1="6.58" y1="43.49" x2="69.61" y2="105.03"/><line class="cls-2" x1="6.58" y1="43.49" x2="95.34" y2="81.1"/><line class="cls-2" x1="6.58" y1="43.49" x2="95.7" y2="42.04"/><line class="cls-2" x1="6.58" y1="43.49" x2="69.61" y2="15.95"/><line class="cls-2" x1="32.71" y1="15.95" x2="69.61" y2="105.03"/><line class="cls-2" x1="32.71" y1="15.95" x2="95.34" y2="81.1"/><line class="cls-2" x1="32.71" y1="15.95" x2="95.7" y2="42.04"/><line class="cls-2" x1="69.61" y1="15.95" x2="69.61" y2="105.03"/><line class="cls-2" x1="69.61" y1="15.95" x2="95.34" y2="81.1"/><line class="cls-2" x1="32.71" y1="105.03" x2="95.7" y2="78.94"/></g><g id="People"><g id="Person"><circle class="cls-3" cx="95.68" cy="29.47" r="4.75"/><path class="cls-4" d="M183.5,156.82a4.25,4.25,0,1,1-4.25,4.25,4.25,4.25,0,0,1,4.25-4.25m0-1a5.25,5.25,0,1,0,5.25,5.25,5.25,5.25,0,0,0-5.25-5.25Z" transform="translate(-87.82 -131.6)"/><ellipse class="cls-4" cx="89.99" cy="29.19" rx="0.88" ry="2"/><ellipse class="cls-4" cx="101.41" cy="29.19" rx="0.88" ry="2"/><path class="cls-3" d="M183.5,180.92a4.53,4.53,0,0,1-4.53-4.53V171a4.53,4.53,0,1,1,9.05,0v5.36A4.53,4.53,0,0,1,183.5,180.92Z" transform="translate(-87.82 -131.6)"/><path class="cls-4" d="M183.5,167a4,4,0,0,1,4,4v5.36a4,4,0,0,1-8.05,0V171a4,4,0,0,1,4-4m0-1h0a5,5,0,0,0-5,5v5.36a5,5,0,0,0,5,5h0a5,5,0,0,0,5-5V171a5,5,0,0,0-5-5Z" transform="translate(-87.82 -131.6)"/></g><g id="Person-2" data-name="Person"><circle class="cls-3" cx="70.45" cy="95.77" r="4.75"/><path class="cls-4" d="M158.27,223.12a4.25,4.25,0,1,1-4.25,4.25,4.25,4.25,0,0,1,4.25-4.25m0-1a5.25,5.25,0,1,0,5.25,5.25,5.25,5.25,0,0,0-5.25-5.25Z" transform="translate(-87.82 -131.6)"/><ellipse class="cls-4" cx="64.75" cy="95.49" rx="0.88" ry="2"/><ellipse class="cls-4" cx="76.18" cy="95.49" rx="0.88" ry="2"/><path class="cls-3" d="M158.27,247.22a4.53,4.53,0,0,1-4.53-4.53v-5.36a4.53,4.53,0,0,1,9.05,0v5.36A4.53,4.53,0,0,1,158.27,247.22Z" transform="translate(-87.82 -131.6)"/><path class="cls-4" d="M158.27,233.31a4,4,0,0,1,4,4v5.36a4,4,0,0,1-8.05,0v-5.36a4,4,0,0,1,4-4m0-1a5,5,0,0,0-5,5v5.36a5,5,0,0,0,10.05,0v-5.36a5,5,0,0,0-5-5Z" transform="translate(-87.82 -131.6)"/></g><g id="Person-3" data-name="Person"><circle class="cls-3" cx="68.7" cy="5.25" r="4.75"/><path class="cls-4" d="M156.52,132.6a4.25,4.25,0,1,1-4.25,4.25,4.25,4.25,0,0,1,4.25-4.25m0-1a5.25,5.25,0,1,0,5.25,5.25,5.25,5.25,0,0,0-5.25-5.25Z" transform="translate(-87.82 -131.6)"/><ellipse class="cls-4" cx="63.01" cy="4.97" rx="0.88" ry="2"/><ellipse class="cls-4" cx="74.43" cy="4.97" rx="0.88" ry="2"/><path class="cls-3" d="M156.52,156.7a4.53,4.53,0,0,1-4.53-4.53v-5.36a4.53,4.53,0,1,1,9.05,0v5.36A4.53,4.53,0,0,1,156.52,156.7Z" transform="translate(-87.82 -131.6)"/><path class="cls-4" d="M156.52,142.78a4,4,0,0,1,4,4v5.36a4,4,0,0,1-8.05,0v-5.36a4,4,0,0,1,4-4m0-1h0a5,5,0,0,0-5,5v5.36a5,5,0,0,0,5,5h0a5,5,0,0,0,5-5v-5.36a5,5,0,0,0-5-5Z" transform="translate(-87.82 -131.6)"/></g><g id="Person-4" data-name="Person"><circle class="cls-3" cx="6.6" cy="68.45" r="4.75"/><path class="cls-4" d="M94.41,195.8a4.25,4.25,0,1,1-4.25,4.25,4.25,4.25,0,0,1,4.25-4.25m0-1a5.25,5.25,0,1,0,5.25,5.25,5.25,5.25,0,0,0-5.25-5.25Z" transform="translate(-87.82 -131.6)"/><ellipse class="cls-4" cx="0.9" cy="68.17" rx="0.88" ry="2"/><ellipse class="cls-4" cx="12.33" cy="68.17" rx="0.88" ry="2"/><path class="cls-3" d="M94.41,219.9a4.53,4.53,0,0,1-4.53-4.53V210a4.53,4.53,0,1,1,9.05,0v5.36A4.53,4.53,0,0,1,94.41,219.9Z" transform="translate(-87.82 -131.6)"/><path class="cls-4" d="M94.41,206a4,4,0,0,1,4,4v5.36a4,4,0,0,1-8.05,0V210a4,4,0,0,1,4-4m0-1h0a5,5,0,0,0-5,5v5.36a5,5,0,0,0,5,5h0a5,5,0,0,0,5-5V210a5,5,0,0,0-5-5Z" transform="translate(-87.82 -131.6)"/></g><g id="Person-5" data-name="Person"><circle class="cls-3" cx="95.34" cy="68.45" r="4.75"/><path class="cls-4" d="M183.16,195.8a4.25,4.25,0,1,1-4.25,4.25,4.25,4.25,0,0,1,4.25-4.25m0-1a5.25,5.25,0,1,0,5.25,5.25,5.25,5.25,0,0,0-5.25-5.25Z" transform="translate(-87.82 -131.6)"/><ellipse class="cls-4" cx="89.65" cy="68.17" rx="0.88" ry="2"/><ellipse class="cls-4" cx="101.07" cy="68.17" rx="0.88" ry="2"/><path class="cls-3" d="M183.16,219.9a4.53,4.53,0,0,1-4.53-4.53V210a4.53,4.53,0,1,1,9.05,0v5.36A4.53,4.53,0,0,1,183.16,219.9Z" transform="translate(-87.82 -131.6)"/><path class="cls-4" d="M183.16,206a4,4,0,0,1,4,4v5.36a4,4,0,0,1-8.05,0V210a4,4,0,0,1,4-4m0-1a5,5,0,0,0-5,5v5.36a5,5,0,1,0,10.05,0V210a5,5,0,0,0-5-5Z" transform="translate(-87.82 -131.6)"/></g><g id="Person-6" data-name="Person"><circle class="cls-3" cx="33.8" cy="95.77" r="4.75"/><path class="cls-4" d="M121.61,223.12a4.25,4.25,0,1,1-4.25,4.25,4.25,4.25,0,0,1,4.25-4.25m0-1a5.25,5.25,0,1,0,5.25,5.25,5.25,5.25,0,0,0-5.25-5.25Z" transform="translate(-87.82 -131.6)"/><ellipse class="cls-4" cx="28.1" cy="95.49" rx="0.88" ry="2"/><ellipse class="cls-4" cx="39.53" cy="95.49" rx="0.88" ry="2"/><path class="cls-3" d="M121.61,247.22a4.53,4.53,0,0,1-4.53-4.53v-5.36a4.53,4.53,0,0,1,9.06,0v5.36A4.53,4.53,0,0,1,121.61,247.22Z" transform="translate(-87.82 -131.6)"/><path class="cls-4" d="M121.61,233.31a4,4,0,0,1,4,4v5.36a4,4,0,0,1-8.05,0v-5.36a4,4,0,0,1,4-4m0-1h0a5,5,0,0,0-5,5v5.36a5,5,0,0,0,5,5h0a5,5,0,0,0,5-5v-5.36a5,5,0,0,0-5-5Z" transform="translate(-87.82 -131.6)"/></g><g id="Person-7" data-name="Person"><circle class="cls-3" cx="6.58" cy="30.85" r="4.75"/><path class="cls-4" d="M94.39,158.2a4.25,4.25,0,1,1-4.25,4.25,4.25,4.25,0,0,1,4.25-4.25m0-1a5.25,5.25,0,1,0,5.25,5.25,5.25,5.25,0,0,0-5.25-5.25Z" transform="translate(-87.82 -131.6)"/><ellipse class="cls-4" cx="0.88" cy="30.57" rx="0.88" ry="2"/><ellipse class="cls-4" cx="12.31" cy="30.57" rx="0.88" ry="2"/><path class="cls-3" d="M94.39,182.3a4.53,4.53,0,0,1-4.53-4.53v-5.36a4.53,4.53,0,0,1,9.06,0v5.36A4.53,4.53,0,0,1,94.39,182.3Z" transform="translate(-87.82 -131.6)"/><path class="cls-4" d="M94.39,168.38a4,4,0,0,1,4,4v5.36a4,4,0,0,1-8.05,0v-5.36a4,4,0,0,1,4-4m0-1h0a5,5,0,0,0-5,5v5.36a5,5,0,0,0,5,5h0a5,5,0,0,0,5-5v-5.36a5,5,0,0,0-5-5Z" transform="translate(-87.82 -131.6)"/></g><g id="Person-8" data-name="Person"><circle class="cls-3" cx="32.01" cy="5.25" r="4.75"/><path class="cls-4" d="M119.83,132.6a4.25,4.25,0,1,1-4.25,4.25,4.25,4.25,0,0,1,4.25-4.25m0-1a5.25,5.25,0,1,0,5.25,5.25,5.25,5.25,0,0,0-5.25-5.25Z" transform="translate(-87.82 -131.6)"/><ellipse class="cls-4" cx="26.32" cy="4.97" rx="0.88" ry="2"/><ellipse class="cls-4" cx="37.74" cy="4.97" rx="0.88" ry="2"/><path class="cls-3" d="M119.83,156.7a4.53,4.53,0,0,1-4.53-4.53v-5.36a4.53,4.53,0,1,1,9.06,0v5.36A4.53,4.53,0,0,1,119.83,156.7Z" transform="translate(-87.82 -131.6)"/><path class="cls-4" d="M119.83,142.78a4,4,0,0,1,4,4v5.36a4,4,0,0,1-8.05,0v-5.36a4,4,0,0,1,4-4m0-1h0a5,5,0,0,0-5,5v5.36a5,5,0,0,0,5,5h0a5,5,0,0,0,5-5v-5.36a5,5,0,0,0-5-5Z" transform="translate(-87.82 -131.6)"/></g><g id="Person-9" data-name="Person"><circle class="cls-3" cx="51.14" cy="49.82" r="4.75"/><path class="cls-4" d="M139,177.17a4.25,4.25,0,1,1-4.25,4.25,4.25,4.25,0,0,1,4.25-4.25m0-1a5.25,5.25,0,1,0,5.25,5.25,5.25,5.25,0,0,0-5.25-5.25Z" transform="translate(-87.82 -131.6)"/><ellipse class="cls-4" cx="45.44" cy="49.54" rx="0.88" ry="2"/><ellipse class="cls-4" cx="56.87" cy="49.54" rx="0.88" ry="2"/><path class="cls-3" d="M139,201.27a4.53,4.53,0,0,1-4.53-4.53v-5.36a4.53,4.53,0,1,1,9.05,0v5.36A4.53,4.53,0,0,1,139,201.27Z" transform="translate(-87.82 -131.6)"/><path class="cls-4" d="M139,187.35a4,4,0,0,1,4,4v5.36a4,4,0,0,1-8.05,0v-5.36a4,4,0,0,1,4-4m0-1h0a5,5,0,0,0-5,5v5.36a5,5,0,0,0,5,5h0a5,5,0,0,0,5-5v-5.36a5,5,0,0,0-5-5Z" transform="translate(-87.82 -131.6)"/></g></g></svg>