<svg id="Layer_1" data-name="Layer 1" xmlns="http://www.w3.org/2000/svg" viewBox="0 0 127.15 67.33"><defs><style>.cls-1{opacity:0.86;}.cls-2{fill:#c1272d;}.cls-3{fill:#ed1c24;}.cls-4{fill:red;}.cls-5{fill:#fff;}</style></defs><title>peoplearound</title><g id="Logo" class="cls-1"><circle class="cls-2" cx="93.49" cy="33.66" r="33.66"/><circle class="cls-3" cx="94.22" cy="33.66" r="23.17"/><circle class="cls-4" cx="94.22" cy="33.66" r="9.18"/></g><g id="People"><g id="Person"><circle class="cls-5" cx="52.01" cy="32.68" r="2.75"/><path class="cls-4" d="M333.47,130.94a2.5,2.5,0,1,1-2.5,2.5,2.5,2.5,0,0,1,2.5-2.5m0-.5a3,3,0,1,0,3,3,3,3,0,0,0-3-3Z" transform="translate(-281.45 -100.76)"/><ellipse class="cls-4" cx="48.76" cy="32.52" rx="0.51" ry="1.14"/><ellipse class="cls-4" cx="55.29" cy="32.52" rx="0.51" ry="1.14"/><path class="cls-5" d="M333.47,144.83a2.63,2.63,0,0,1-2.63-2.62v-3.07a2.63,2.63,0,0,1,5.25,0v3.07A2.63,2.63,0,0,1,333.47,144.83Z" transform="translate(-281.45 -100.76)"/><path class="cls-4" d="M333.47,136.76a2.38,2.38,0,0,1,2.38,2.38v3.07a2.38,2.38,0,0,1-4.75,0v-3.07a2.38,2.38,0,0,1,2.38-2.38m0-.5a2.88,2.88,0,0,0-2.88,2.88v3.07a2.88,2.88,0,0,0,5.75,0v-3.07a2.88,2.88,0,0,0-2.88-2.88Z" transform="translate(-281.45 -100.76)"/></g><g id="Person-2" data-name="Person"><circle class="cls-5" cx="39.43" cy="50.61" r="2.75"/><path class="cls-4" d="M320.89,148.87a2.5,2.5,0,1,1-2.5,2.5,2.5,2.5,0,0,1,2.5-2.5m0-.5a3,3,0,1,0,3,3,3,3,0,0,0-3-3Z" transform="translate(-281.45 -100.76)"/><path class="cls-5" d="M320.89,162.76a2.63,2.63,0,0,1-2.62-2.62v-3.07a2.63,2.63,0,1,1,5.25,0v3.07A2.63,2.63,0,0,1,320.89,162.76Z" transform="translate(-281.45 -100.76)"/><path class="cls-4" d="M320.89,154.69a2.38,2.38,0,0,1,2.38,2.38v3.07a2.38,2.38,0,1,1-4.75,0v-3.07a2.38,2.38,0,0,1,2.38-2.38m0-.5a2.88,2.88,0,0,0-2.88,2.88v3.07a2.88,2.88,0,1,0,5.75,0v-3.07a2.88,2.88,0,0,0-2.88-2.88Z" transform="translate(-281.45 -100.76)"/></g><g id="Person-3" data-name="Person"><circle class="cls-5" cx="27.59" cy="51.26" r="2.75"/><path class="cls-4" d="M309,149.52a2.5,2.5,0,1,1-2.5,2.5,2.5,2.5,0,0,1,2.5-2.5m0-.5a3,3,0,1,0,3,3,3,3,0,0,0-3-3Z" transform="translate(-281.45 -100.76)"/><path class="cls-5" d="M309,163.41a2.63,2.63,0,0,1-2.63-2.63v-3.07a2.63,2.63,0,1,1,5.25,0v3.07A2.63,2.63,0,0,1,309,163.41Z" transform="translate(-281.45 -100.76)"/><path class="cls-4" d="M309,155.34a2.38,2.38,0,0,1,2.38,2.38v3.07a2.38,2.38,0,0,1-4.75,0v-3.07a2.38,2.38,0,0,1,2.38-2.38m0-.5a2.88,2.88,0,0,0-2.88,2.88v3.07a2.88,2.88,0,0,0,5.75,0v-3.07a2.88,2.88,0,0,0-2.88-2.88Z" transform="translate(-281.45 -100.76)"/></g><g id="Person-4" data-name="Person"><circle class="cls-5" cx="14.51" cy="50.45" r="2.75"/><path class="cls-4" d="M296,148.7a2.5,2.5,0,1,1-2.5,2.5,2.5,2.5,0,0,1,2.5-2.5m0-.5a3,3,0,1,0,3,3,3,3,0,0,0-3-3Z" transform="translate(-281.45 -100.76)"/><path class="cls-5" d="M296,162.59a2.63,2.63,0,0,1-2.63-2.62V156.9a2.63,2.63,0,1,1,5.25,0V160A2.63,2.63,0,0,1,296,162.59Z" transform="translate(-281.45 -100.76)"/><path class="cls-4" d="M296,154.52a2.38,2.38,0,0,1,2.38,2.38V160a2.38,2.38,0,1,1-4.75,0V156.9a2.38,2.38,0,0,1,2.38-2.38m0-.5h0a2.88,2.88,0,0,0-2.88,2.88V160a2.88,2.88,0,0,0,2.88,2.88h0a2.88,2.88,0,0,0,2.88-2.88V156.9A2.88,2.88,0,0,0,296,154Z" transform="translate(-281.45 -100.76)"/></g><g id="Person-5" data-name="Person"><circle class="cls-5" cx="3" cy="50.61" r="2.75"/><path class="cls-4" d="M284.46,148.87a2.5,2.5,0,1,1-2.5,2.5,2.5,2.5,0,0,1,2.5-2.5m0-.5a3,3,0,1,0,3,3,3,3,0,0,0-3-3Z" transform="translate(-281.45 -100.76)"/><path class="cls-5" d="M284.46,162.76a2.63,2.63,0,0,1-2.62-2.62v-3.07a2.63,2.63,0,1,1,5.25,0v3.07A2.63,2.63,0,0,1,284.46,162.76Z" transform="translate(-281.45 -100.76)"/><path class="cls-4" d="M284.46,154.69a2.38,2.38,0,0,1,2.38,2.38v3.07a2.38,2.38,0,1,1-4.75,0v-3.07a2.38,2.38,0,0,1,2.38-2.38m0-.5h0a2.88,2.88,0,0,0-2.88,2.88v3.07a2.88,2.88,0,0,0,2.88,2.88h0a2.88,2.88,0,0,0,2.88-2.88v-3.07a2.88,2.88,0,0,0-2.88-2.88Z" transform="translate(-281.45 -100.76)"/></g><g id="Person-6" data-name="Person"><circle class="cls-5" cx="39.43" cy="32.68" r="2.75"/><path class="cls-4" d="M320.89,130.94a2.5,2.5,0,1,1-2.5,2.5,2.5,2.5,0,0,1,2.5-2.5m0-.5a3,3,0,1,0,3,3,3,3,0,0,0-3-3Z" transform="translate(-281.45 -100.76)"/><path class="cls-5" d="M320.89,144.83a2.63,2.63,0,0,1-2.62-2.62v-3.07a2.63,2.63,0,1,1,5.25,0v3.07A2.63,2.63,0,0,1,320.89,144.83Z" transform="translate(-281.45 -100.76)"/><path class="cls-4" d="M320.89,136.76a2.38,2.38,0,0,1,2.38,2.38v3.07a2.38,2.38,0,0,1-4.75,0v-3.07a2.38,2.38,0,0,1,2.38-2.38m0-.5a2.88,2.88,0,0,0-2.88,2.88v3.07a2.88,2.88,0,0,0,5.75,0v-3.07a2.88,2.88,0,0,0-2.88-2.88Z" transform="translate(-281.45 -100.76)"/></g><g id="Person-7" data-name="Person"><circle class="cls-5" cx="27.59" cy="32.68" r="2.75"/><path class="cls-4" d="M309,130.94a2.5,2.5,0,1,1-2.5,2.5,2.5,2.5,0,0,1,2.5-2.5m0-.5a3,3,0,1,0,3,3,3,3,0,0,0-3-3Z" transform="translate(-281.45 -100.76)"/><path class="cls-5" d="M309,144.83a2.63,2.63,0,0,1-2.63-2.62v-3.07a2.63,2.63,0,1,1,5.25,0v3.07A2.63,2.63,0,0,1,309,144.83Z" transform="translate(-281.45 -100.76)"/><path class="cls-4" d="M309,136.76a2.38,2.38,0,0,1,2.38,2.38v3.07a2.38,2.38,0,0,1-4.75,0v-3.07a2.38,2.38,0,0,1,2.38-2.38m0-.5a2.88,2.88,0,0,0-2.88,2.88v3.07a2.88,2.88,0,0,0,5.75,0v-3.07a2.88,2.88,0,0,0-2.88-2.88Z" transform="translate(-281.45 -100.76)"/></g><g id="Person-8" data-name="Person"><circle class="cls-5" cx="14.51" cy="32.86" r="2.75"/><path class="cls-4" d="M296,131.12a2.5,2.5,0,1,1-2.5,2.5,2.5,2.5,0,0,1,2.5-2.5m0-.5a3,3,0,1,0,3,3,3,3,0,0,0-3-3Z" transform="translate(-281.45 -100.76)"/><path class="cls-5" d="M296,145a2.63,2.63,0,0,1-2.63-2.63v-3.07a2.63,2.63,0,1,1,5.25,0v3.07A2.63,2.63,0,0,1,296,145Z" transform="translate(-281.45 -100.76)"/><path class="cls-4" d="M296,136.94a2.38,2.38,0,0,1,2.38,2.38v3.07a2.38,2.38,0,0,1-4.75,0v-3.07a2.38,2.38,0,0,1,2.38-2.38m0-.5a2.88,2.88,0,0,0-2.88,2.88v3.07a2.88,2.88,0,0,0,5.75,0v-3.07a2.88,2.88,0,0,0-2.88-2.88Z" transform="translate(-281.45 -100.76)"/></g><g id="Person-9" data-name="Person"><circle class="cls-5" cx="3" cy="32.68" r="2.75"/><path class="cls-4" d="M284.46,130.94a2.5,2.5,0,1,1-2.5,2.5,2.5,2.5,0,0,1,2.5-2.5m0-.5a3,3,0,1,0,3,3,3,3,0,0,0-3-3Z" transform="translate(-281.45 -100.76)"/><path class="cls-5" d="M284.46,144.83a2.63,2.63,0,0,1-2.62-2.62v-3.07a2.63,2.63,0,1,1,5.25,0v3.07A2.63,2.63,0,0,1,284.46,144.83Z" transform="translate(-281.45 -100.76)"/><path class="cls-4" d="M284.46,136.76a2.38,2.38,0,0,1,2.38,2.38v3.07a2.38,2.38,0,0,1-4.75,0v-3.07a2.38,2.38,0,0,1,2.38-2.38m0-.5h0a2.88,2.88,0,0,0-2.88,2.88v3.07a2.88,2.88,0,0,0,2.88,2.88h0a2.88,2.88,0,0,0,2.88-2.88v-3.07a2.88,2.88,0,0,0-2.88-2.88Z" transform="translate(-281.45 -100.76)"/></g><g id="Person-10" data-name="Person"><circle class="cls-5" cx="39.43" cy="13.84" r="2.75"/><path class="cls-4" d="M320.89,112.09a2.5,2.5,0,1,1-2.5,2.5,2.5,2.5,0,0,1,2.5-2.5m0-.5a3,3,0,1,0,3,3,3,3,0,0,0-3-3Z" transform="translate(-281.45 -100.76)"/><path class="cls-5" d="M320.89,126a2.63,2.63,0,0,1-2.62-2.62v-3.07a2.63,2.63,0,1,1,5.25,0v3.07A2.63,2.63,0,0,1,320.89,126Z" transform="translate(-281.45 -100.76)"/><path class="cls-4" d="M320.89,117.92a2.38,2.38,0,0,1,2.38,2.38v3.07a2.38,2.38,0,0,1-4.75,0v-3.07a2.38,2.38,0,0,1,2.38-2.38m0-.5a2.88,2.88,0,0,0-2.88,2.88v3.07a2.88,2.88,0,0,0,5.75,0v-3.07a2.88,2.88,0,0,0-2.88-2.88Z" transform="translate(-281.45 -100.76)"/></g><g id="Person-11" data-name="Person"><circle class="cls-5" cx="27.59" cy="13.84" r="2.75"/><path class="cls-4" d="M309,112.09a2.5,2.5,0,1,1-2.5,2.5,2.5,2.5,0,0,1,2.5-2.5m0-.5a3,3,0,1,0,3,3,3,3,0,0,0-3-3Z" transform="translate(-281.45 -100.76)"/><path class="cls-5" d="M309,126a2.63,2.63,0,0,1-2.63-2.62v-3.07a2.63,2.63,0,1,1,5.25,0v3.07A2.63,2.63,0,0,1,309,126Z" transform="translate(-281.45 -100.76)"/><path class="cls-4" d="M309,117.92a2.38,2.38,0,0,1,2.38,2.38v3.07a2.38,2.38,0,0,1-4.75,0v-3.07a2.38,2.38,0,0,1,2.38-2.38m0-.5a2.88,2.88,0,0,0-2.88,2.88v3.07a2.88,2.88,0,0,0,5.75,0v-3.07a2.88,2.88,0,0,0-2.88-2.88Z" transform="translate(-281.45 -100.76)"/></g><g id="Person-12" data-name="Person"><circle class="cls-5" cx="14.51" cy="14.02" r="2.75"/><path class="cls-4" d="M296,112.27a2.5,2.5,0,1,1-2.5,2.5,2.5,2.5,0,0,1,2.5-2.5m0-.5a3,3,0,1,0,3,3,3,3,0,0,0-3-3Z" transform="translate(-281.45 -100.76)"/><path class="cls-5" d="M296,126.16a2.63,2.63,0,0,1-2.63-2.63v-3.07a2.63,2.63,0,1,1,5.25,0v3.07A2.63,2.63,0,0,1,296,126.16Z" transform="translate(-281.45 -100.76)"/><path class="cls-4" d="M296,118.1a2.38,2.38,0,0,1,2.38,2.38v3.07a2.38,2.38,0,1,1-4.75,0v-3.07A2.38,2.38,0,0,1,296,118.1m0-.5a2.88,2.88,0,0,0-2.88,2.88v3.07a2.88,2.88,0,1,0,5.75,0v-3.07A2.88,2.88,0,0,0,296,117.6Z" transform="translate(-281.45 -100.76)"/></g><g id="Person-13" data-name="Person"><circle class="cls-5" cx="3" cy="13.84" r="2.75"/><path class="cls-4" d="M284.46,112.09a2.5,2.5,0,1,1-2.5,2.5,2.5,2.5,0,0,1,2.5-2.5m0-.5a3,3,0,1,0,3,3,3,3,0,0,0-3-3Z" transform="translate(-281.45 -100.76)"/><path class="cls-5" d="M284.46,126a2.63,2.63,0,0,1-2.62-2.62v-3.07a2.63,2.63,0,1,1,5.25,0v3.07A2.63,2.63,0,0,1,284.46,126Z" transform="translate(-281.45 -100.76)"/><path class="cls-4" d="M284.46,117.92a2.38,2.38,0,0,1,2.38,2.38v3.07a2.38,2.38,0,0,1-4.75,0v-3.07a2.38,2.38,0,0,1,2.38-2.38m0-.5h0a2.88,2.88,0,0,0-2.88,2.88v3.07a2.88,2.88,0,0,0,2.88,2.88h0a2.88,2.88,0,0,0,2.88-2.88v-3.07a2.88,2.88,0,0,0-2.88-2.88Z" transform="translate(-281.45 -100.76)"/></g><g id="Person-14" data-name="Person"><circle class="cls-5" cx="89.84" cy="13.84" r="2.75"/><path class="cls-4" d="M371.29,112.09a2.5,2.5,0,1,1-2.5,2.5,2.5,2.5,0,0,1,2.5-2.5m0-.5a3,3,0,1,0,3,3,3,3,0,0,0-3-3Z" transform="translate(-281.45 -100.76)"/><path class="cls-5" d="M371.29,126a2.63,2.63,0,0,1-2.63-2.62v-3.07a2.63,2.63,0,0,1,5.25,0v3.07A2.63,2.63,0,0,1,371.29,126Z" transform="translate(-281.45 -100.76)"/><path class="cls-4" d="M371.29,117.92a2.38,2.38,0,0,1,2.38,2.38v3.07a2.38,2.38,0,0,1-4.75,0v-3.07a2.38,2.38,0,0,1,2.38-2.38m0-.5a2.88,2.88,0,0,0-2.88,2.88v3.07a2.88,2.88,0,0,0,5.75,0v-3.07a2.88,2.88,0,0,0-2.88-2.88Z" transform="translate(-281.45 -100.76)"/></g><g id="Person-15" data-name="Person"><circle class="cls-5" cx="77.99" cy="13.84" r="2.75"/><path class="cls-4" d="M359.45,112.09a2.5,2.5,0,1,1-2.5,2.5,2.5,2.5,0,0,1,2.5-2.5m0-.5a3,3,0,1,0,3,3,3,3,0,0,0-3-3Z" transform="translate(-281.45 -100.76)"/><path class="cls-5" d="M359.45,126a2.63,2.63,0,0,1-2.62-2.62v-3.07a2.63,2.63,0,1,1,5.25,0v3.07A2.63,2.63,0,0,1,359.45,126Z" transform="translate(-281.45 -100.76)"/><path class="cls-4" d="M359.45,117.92a2.38,2.38,0,0,1,2.38,2.38v3.07a2.38,2.38,0,0,1-4.75,0v-3.07a2.38,2.38,0,0,1,2.38-2.38m0-.5a2.88,2.88,0,0,0-2.88,2.88v3.07a2.88,2.88,0,0,0,5.75,0v-3.07a2.88,2.88,0,0,0-2.88-2.88Z" transform="translate(-281.45 -100.76)"/></g><g id="Person-16" data-name="Person"><circle class="cls-5" cx="64.91" cy="13.84" r="2.75"/><path class="cls-4" d="M346.37,112.09a2.5,2.5,0,1,1-2.5,2.5,2.5,2.5,0,0,1,2.5-2.5m0-.5a3,3,0,1,0,3,3,3,3,0,0,0-3-3Z" transform="translate(-281.45 -100.76)"/><path class="cls-5" d="M346.37,126a2.63,2.63,0,0,1-2.63-2.62v-3.07a2.63,2.63,0,1,1,5.25,0v3.07A2.63,2.63,0,0,1,346.37,126Z" transform="translate(-281.45 -100.76)"/><path class="cls-4" d="M346.37,117.92a2.38,2.38,0,0,1,2.38,2.38v3.07a2.38,2.38,0,0,1-4.75,0v-3.07a2.38,2.38,0,0,1,2.38-2.38m0-.5a2.88,2.88,0,0,0-2.88,2.88v3.07a2.88,2.88,0,0,0,5.75,0v-3.07a2.88,2.88,0,0,0-2.88-2.88Z" transform="translate(-281.45 -100.76)"/></g><g id="Person-17" data-name="Person"><circle class="cls-5" cx="52.01" cy="14.42" r="2.75"/><path class="cls-4" d="M333.47,112.67a2.5,2.5,0,1,1-2.5,2.5,2.5,2.5,0,0,1,2.5-2.5m0-.5a3,3,0,1,0,3,3,3,3,0,0,0-3-3Z" transform="translate(-281.45 -100.76)"/><path class="cls-5" d="M333.47,126.56a2.63,2.63,0,0,1-2.63-2.63v-3.07a2.63,2.63,0,0,1,5.25,0v3.07A2.63,2.63,0,0,1,333.47,126.56Z" transform="translate(-281.45 -100.76)"/><path class="cls-4" d="M333.47,118.49a2.38,2.38,0,0,1,2.38,2.38v3.07a2.38,2.38,0,1,1-4.75,0v-3.07a2.38,2.38,0,0,1,2.38-2.38m0-.5a2.88,2.88,0,0,0-2.88,2.88v3.07a2.88,2.88,0,1,0,5.75,0v-3.07a2.88,2.88,0,0,0-2.88-2.88Z" transform="translate(-281.45 -100.76)"/></g><g id="Person-18" data-name="Person"><circle class="cls-5" cx="101.47" cy="32.89" r="2.75"/><path class="cls-4" d="M382.92,131.14a2.5,2.5,0,1,1-2.5,2.5,2.5,2.5,0,0,1,2.5-2.5m0-.5a3,3,0,1,0,3,3,3,3,0,0,0-3-3Z" transform="translate(-281.45 -100.76)"/><path class="cls-5" d="M382.92,145a2.63,2.63,0,0,1-2.63-2.62v-3.07a2.63,2.63,0,1,1,5.25,0v3.07A2.63,2.63,0,0,1,382.92,145Z" transform="translate(-281.45 -100.76)"/><path class="cls-4" d="M382.92,137a2.38,2.38,0,0,1,2.38,2.38v3.07a2.38,2.38,0,0,1-4.75,0v-3.07a2.38,2.38,0,0,1,2.38-2.38m0-.5a2.88,2.88,0,0,0-2.88,2.88v3.07a2.88,2.88,0,0,0,5.75,0v-3.07a2.88,2.88,0,0,0-2.88-2.88Z" transform="translate(-281.45 -100.76)"/></g><g id="Person-19" data-name="Person"><circle class="cls-5" cx="89.62" cy="32.89" r="2.75"/><path class="cls-4" d="M371.08,131.14a2.5,2.5,0,1,1-2.5,2.5,2.5,2.5,0,0,1,2.5-2.5m0-.5a3,3,0,1,0,3,3,3,3,0,0,0-3-3Z" transform="translate(-281.45 -100.76)"/><path class="cls-5" d="M371.08,145a2.63,2.63,0,0,1-2.63-2.62v-3.07a2.63,2.63,0,1,1,5.25,0v3.07A2.63,2.63,0,0,1,371.08,145Z" transform="translate(-281.45 -100.76)"/><path class="cls-4" d="M371.08,137a2.38,2.38,0,0,1,2.38,2.38v3.07a2.38,2.38,0,0,1-4.75,0v-3.07a2.38,2.38,0,0,1,2.38-2.38m0-.5a2.88,2.88,0,0,0-2.88,2.88v3.07a2.88,2.88,0,0,0,5.75,0v-3.07a2.88,2.88,0,0,0-2.88-2.88Z" transform="translate(-281.45 -100.76)"/></g><g id="Person-20" data-name="Person"><circle class="cls-5" cx="76.54" cy="32.89" r="2.75"/><path class="cls-4" d="M358,131.14a2.5,2.5,0,1,1-2.5,2.5,2.5,2.5,0,0,1,2.5-2.5m0-.5a3,3,0,1,0,3,3,3,3,0,0,0-3-3Z" transform="translate(-281.45 -100.76)"/><path class="cls-5" d="M358,145a2.63,2.63,0,0,1-2.62-2.62v-3.07a2.63,2.63,0,1,1,5.25,0v3.07A2.63,2.63,0,0,1,358,145Z" transform="translate(-281.45 -100.76)"/><path class="cls-4" d="M358,137a2.38,2.38,0,0,1,2.38,2.38v3.07a2.38,2.38,0,1,1-4.75,0v-3.07A2.38,2.38,0,0,1,358,137m0-.5h0a2.88,2.88,0,0,0-2.88,2.88v3.07a2.88,2.88,0,0,0,2.88,2.88h0a2.88,2.88,0,0,0,2.88-2.88v-3.07a2.88,2.88,0,0,0-2.88-2.88Z" transform="translate(-281.45 -100.76)"/></g><g id="Person-21" data-name="Person"><circle class="cls-5" cx="65.04" cy="32.89" r="2.75"/><path class="cls-4" d="M346.49,131.14a2.5,2.5,0,1,1-2.5,2.5,2.5,2.5,0,0,1,2.5-2.5m0-.5a3,3,0,1,0,3,3,3,3,0,0,0-3-3Z" transform="translate(-281.45 -100.76)"/><path class="cls-5" d="M346.49,145a2.63,2.63,0,0,1-2.63-2.62v-3.07a2.63,2.63,0,1,1,5.25,0v3.07A2.63,2.63,0,0,1,346.49,145Z" transform="translate(-281.45 -100.76)"/><path class="cls-4" d="M346.49,137a2.38,2.38,0,0,1,2.38,2.38v3.07a2.38,2.38,0,0,1-4.75,0v-3.07a2.38,2.38,0,0,1,2.38-2.38m0-.5h0a2.88,2.88,0,0,0-2.88,2.88v3.07a2.88,2.88,0,0,0,2.88,2.88h0a2.88,2.88,0,0,0,2.88-2.88v-3.07a2.88,2.88,0,0,0-2.88-2.88Z" transform="translate(-281.45 -100.76)"/></g><g id="Person-22" data-name="Person"><circle class="cls-5" cx="101.47" cy="51.26" r="2.75"/><path class="cls-4" d="M382.92,149.52a2.5,2.5,0,1,1-2.5,2.5,2.5,2.5,0,0,1,2.5-2.5m0-.5a3,3,0,1,0,3,3,3,3,0,0,0-3-3Z" transform="translate(-281.45 -100.76)"/><path class="cls-5" d="M382.92,163.41a2.63,2.63,0,0,1-2.63-2.63v-3.07a2.63,2.63,0,1,1,5.25,0v3.07A2.63,2.63,0,0,1,382.92,163.41Z" transform="translate(-281.45 -100.76)"/><path class="cls-4" d="M382.92,155.34a2.38,2.38,0,0,1,2.38,2.38v3.07a2.38,2.38,0,1,1-4.75,0v-3.07a2.38,2.38,0,0,1,2.38-2.38m0-.5a2.88,2.88,0,0,0-2.88,2.88v3.07a2.88,2.88,0,1,0,5.75,0v-3.07a2.88,2.88,0,0,0-2.88-2.88Z" transform="translate(-281.45 -100.76)"/></g><g id="Person-23" data-name="Person"><circle class="cls-5" cx="90.61" cy="52.58" r="2.75"/><path class="cls-4" d="M372.07,150.84a2.5,2.5,0,1,1-2.5,2.5,2.5,2.5,0,0,1,2.5-2.5m0-.5a3,3,0,1,0,3,3,3,3,0,0,0-3-3Z" transform="translate(-281.45 -100.76)"/><path class="cls-5" d="M372.07,164.73a2.63,2.63,0,0,1-2.63-2.62V159a2.63,2.63,0,1,1,5.25,0v3.07A2.63,2.63,0,0,1,372.07,164.73Z" transform="translate(-281.45 -100.76)"/><path class="cls-4" d="M372.07,156.66a2.38,2.38,0,0,1,2.38,2.38v3.07a2.38,2.38,0,1,1-4.75,0V159a2.38,2.38,0,0,1,2.38-2.38m0-.5h0a2.88,2.88,0,0,0-2.88,2.88v3.07a2.88,2.88,0,0,0,2.88,2.88h0a2.88,2.88,0,0,0,2.88-2.88V159a2.88,2.88,0,0,0-2.88-2.88Z" transform="translate(-281.45 -100.76)"/></g><g id="Person-24" data-name="Person"><circle class="cls-5" cx="77.54" cy="52.58" r="2.75"/><path class="cls-4" d="M359,150.84a2.5,2.5,0,1,1-2.5,2.5,2.5,2.5,0,0,1,2.5-2.5m0-.5a3,3,0,1,0,3,3,3,3,0,0,0-3-3Z" transform="translate(-281.45 -100.76)"/><path class="cls-5" d="M359,164.73a2.63,2.63,0,0,1-2.62-2.62V159a2.63,2.63,0,1,1,5.25,0v3.07A2.63,2.63,0,0,1,359,164.73Z" transform="translate(-281.45 -100.76)"/><path class="cls-4" d="M359,156.66a2.38,2.38,0,0,1,2.38,2.38v3.07a2.38,2.38,0,0,1-4.75,0V159a2.38,2.38,0,0,1,2.38-2.38m0-.5a2.88,2.88,0,0,0-2.88,2.88v3.07a2.88,2.88,0,0,0,5.75,0V159a2.88,2.88,0,0,0-2.88-2.88Z" transform="translate(-281.45 -100.76)"/></g><g id="Person-25" data-name="Person"><circle class="cls-5" cx="64.46" cy="51.93" r="2.75"/><path class="cls-4" d="M345.91,150.19a2.5,2.5,0,1,1-2.5,2.5,2.5,2.5,0,0,1,2.5-2.5m0-.5a3,3,0,1,0,3,3,3,3,0,0,0-3-3Z" transform="translate(-281.45 -100.76)"/><path class="cls-5" d="M345.91,164.08a2.63,2.63,0,0,1-2.63-2.62v-3.07a2.63,2.63,0,0,1,5.25,0v3.07A2.63,2.63,0,0,1,345.91,164.08Z" transform="translate(-281.45 -100.76)"/><path class="cls-4" d="M345.91,156a2.38,2.38,0,0,1,2.38,2.38v3.07a2.38,2.38,0,1,1-4.75,0v-3.07a2.38,2.38,0,0,1,2.38-2.38m0-.5h0a2.88,2.88,0,0,0-2.88,2.88v3.07a2.88,2.88,0,0,0,2.88,2.88h0a2.88,2.88,0,0,0,2.88-2.88v-3.07a2.88,2.88,0,0,0-2.88-2.88Z" transform="translate(-281.45 -100.76)"/></g><g id="Person-26" data-name="Person"><circle class="cls-5" cx="101.47" cy="13.19" r="2.75"/><path class="cls-4" d="M382.92,111.44a2.5,2.5,0,1,1-2.5,2.5,2.5,2.5,0,0,1,2.5-2.5m0-.5a3,3,0,1,0,3,3,3,3,0,0,0-3-3Z" transform="translate(-281.45 -100.76)"/><path class="cls-5" d="M382.92,125.33a2.63,2.63,0,0,1-2.63-2.62v-3.07a2.63,2.63,0,0,1,5.25,0v3.07A2.63,2.63,0,0,1,382.92,125.33Z" transform="translate(-281.45 -100.76)"/><path class="cls-4" d="M382.92,117.27a2.38,2.38,0,0,1,2.38,2.38v3.07a2.38,2.38,0,0,1-4.75,0v-3.07a2.38,2.38,0,0,1,2.38-2.38m0-.5a2.88,2.88,0,0,0-2.88,2.88v3.07a2.88,2.88,0,0,0,5.75,0v-3.07a2.88,2.88,0,0,0-2.88-2.88Z" transform="translate(-281.45 -100.76)"/></g><g id="Person-27" data-name="Person"><circle class="cls-5" cx="52.01" cy="51.88" r="2.75"/><path class="cls-4" d="M333.47,150.14a2.5,2.5,0,1,1-2.5,2.5,2.5,2.5,0,0,1,2.5-2.5m0-.5a3,3,0,1,0,3,3,3,3,0,0,0-3-3Z" transform="translate(-281.45 -100.76)"/><path class="cls-5" d="M333.47,164a2.63,2.63,0,0,1-2.63-2.63v-3.07a2.63,2.63,0,0,1,5.25,0v3.07A2.63,2.63,0,0,1,333.47,164Z" transform="translate(-281.45 -100.76)"/><path class="cls-4" d="M333.47,156a2.38,2.38,0,0,1,2.38,2.38v3.07a2.38,2.38,0,1,1-4.75,0v-3.07a2.38,2.38,0,0,1,2.38-2.38m0-.5a2.88,2.88,0,0,0-2.88,2.88v3.07a2.88,2.88,0,1,0,5.75,0v-3.07a2.88,2.88,0,0,0-2.88-2.88Z" transform="translate(-281.45 -100.76)"/></g></g></svg>